<svg xmlns="http://www.w3.org/2000/svg" viewBox="0 0 600 720"><rect width="600" height="720" fill="#94b9c9"/><path fill="#e8e5d8" d="M0 480h600v240H0z"/><path fill="#1c3535" d="M75 720c7-164 79-258 224-258 142 0 218 94 226 258z"/><path fill="#dfbd94" d="M217 423h167v119H217z"/><ellipse cx="300" cy="310" fill="#c99470" rx="127" ry="153"/><path fill="#303b38" d="M167 321c-21-117-8-232 124-232 142 0 171 107 138 243l-41-48-8-92c-74 33-138 34-199 5l-1 87z"/><path fill="#c99470" d="M165 296c-34 8-39 50-23 82 11 21 27 27 39 25zm269 0c34 8 39 50 23 82-11 21-27 27-39 25z"/><path fill="none" stroke="#33423b" stroke-width="8" stroke-linecap="round" d="M245 312h24m63 0h24"/><path fill="none" stroke="#8d5145" stroke-width="7" stroke-linecap="round" d="M272 389q28 17 56 0"/><path fill="#e87858" d="M70 95h130v100H70z"/><path fill="#fff1d8" d="M94 119h82v8H94zm0 21h55v7H94z"/><circle cx="500" cy="104" r="35" fill="#d1ef76"/></svg>