<svg xmlns="http://www.w3.org/2000/svg" viewBox="0 0 900 650"><rect width="900" height="650" fill="#e8b16f"/><path fill="#f5eedf" d="M72 67h756v516H72z"/><path fill="#29453c" d="M72 67h756v516H72z"/><circle cx="472" cy="290" r="151" fill="#e87857"/><circle cx="472" cy="290" r="101" fill="#f3d375"/><circle cx="472" cy="290" r="49" fill="#d2ef76"/><path fill="#91b9a5" d="M72 420c135-99 225-71 340 5s223 75 416-12v170H72z"/><path fill="#c3ddc9" d="M72 485c135-49 240-29 369 21 107 42 245 17 387-28v105H72z"/><path fill="#f7f1e3" d="M107 97h157v13H107zm0 27h102v8H107z"/><path fill="#d0ee75" d="M692 487h95v11h-95z"/></svg>