<svg xmlns="http://www.w3.org/2000/svg" viewBox="0 0 900 650"><rect width="900" height="650" fill="#e8ddc2"/><path fill="#d3e5d9" d="M0 0h340v650H0z"/><path fill="#f4efe2" d="M340 0h560v650H340z"/><circle cx="713" cy="139" r="92" fill="#d4f078"/><path fill="#c66b4e" d="M113 430c91-93 193-96 303 0l-50 220H141z"/><path fill="#263a32" d="M518 257h181l32 324H488z"/><path fill="#344f43" d="M560 211h98v57h-98z"/><path fill="#d0ef71" d="M549 354h119v111H549z"/><path fill="#eff1e8" d="M568 380h81v9h-81zm0 21h59v7h-59z"/><path fill="#293d34" d="M90 581h718v69H90z"/><path fill="#fff6e3" d="M0 0h900v26H0z"/><path fill="#e57554" d="M98 112h128v10H98zm0 20h86v7h-86z"/><circle cx="231" cy="264" r="42" fill="#e87c5a"/></svg>